<svg width="16" height="16" viewBox="0 0 16 16" fill="none" xmlns="http://www.w3.org/2000/svg">
<rect width="16" height="16" fill="white" fill-opacity="0.01"/>
<g clip-path="url(#clip0_10_95140)">
<rect width="14" height="14" transform="translate(1 1)" fill="white" fill-opacity="0.01"/>
<g clip-path="url(#clip1_10_95140)">
<path d="M10.4969 7.25196C10.5376 7.2926 10.57 7.34088 10.592 7.39403C10.6141 7.44718 10.6254 7.50416 10.6254 7.56171C10.6254 7.61925 10.6141 7.67623 10.592 7.72939C10.57 7.78254 10.5376 7.83082 10.4969 7.87146L7.87188 10.4965C7.83124 10.5372 7.78297 10.5695 7.72981 10.5916C7.67666 10.6136 7.61968 10.625 7.56213 10.625C7.50459 10.625 7.44761 10.6136 7.39445 10.5916C7.3413 10.5695 7.29302 10.5372 7.25238 10.4965L5.93988 9.18396C5.89921 9.14328 5.86694 9.09499 5.84493 9.04184C5.82291 8.9887 5.81158 8.93173 5.81158 8.87421C5.81158 8.81668 5.82291 8.75972 5.84493 8.70657C5.86694 8.65342 5.89921 8.60513 5.93988 8.56446C6.02203 8.48231 6.13345 8.43615 6.24963 8.43615C6.30716 8.43615 6.36412 8.44748 6.41727 8.4695C6.47042 8.49151 6.51871 8.52378 6.55938 8.56446L7.56213 9.56808L9.87738 7.25196C9.91802 7.21121 9.9663 7.17889 10.0195 7.15683C10.0726 7.13478 10.1296 7.12342 10.1871 7.12342C10.2447 7.12342 10.3017 7.13478 10.3548 7.15683C10.408 7.17889 10.4562 7.21121 10.4969 7.25196Z" fill="#6C757D"/>
<path d="M4.06213 0.999207C4.17817 0.999207 4.28945 1.0453 4.37149 1.12735C4.45354 1.20939 4.49963 1.32067 4.49963 1.43671V1.87421H11.4996V1.43671C11.4996 1.32067 11.5457 1.20939 11.6278 1.12735C11.7098 1.0453 11.8211 0.999207 11.9371 0.999207C12.0532 0.999207 12.1644 1.0453 12.2465 1.12735C12.3285 1.20939 12.3746 1.32067 12.3746 1.43671V1.87421H13.2496C13.7138 1.87421 14.1589 2.05858 14.4871 2.38677C14.8153 2.71496 14.9996 3.16008 14.9996 3.62421V13.2492C14.9996 13.7133 14.8153 14.1585 14.4871 14.4866C14.1589 14.8148 13.7138 14.9992 13.2496 14.9992H2.74963C2.2855 14.9992 1.84039 14.8148 1.5122 14.4866C1.18401 14.1585 0.999634 13.7133 0.999634 13.2492V3.62421C0.999634 3.16008 1.18401 2.71496 1.5122 2.38677C1.84039 2.05858 2.2855 1.87421 2.74963 1.87421H3.62463V1.43671C3.62463 1.32067 3.67073 1.20939 3.75277 1.12735C3.83482 1.0453 3.9461 0.999207 4.06213 0.999207ZM1.87463 4.49921V13.2492C1.87463 13.4813 1.96682 13.7038 2.13092 13.8679C2.29501 14.032 2.51757 14.1242 2.74963 14.1242H13.2496C13.4817 14.1242 13.7043 14.032 13.8684 13.8679C14.0324 13.7038 14.1246 13.4813 14.1246 13.2492V4.49921H1.87463Z" fill="#6C757D"/>
</g>
</g>
<defs>
<clipPath id="clip0_10_95140">
<rect width="14" height="14" fill="white" transform="translate(1 1)"/>
</clipPath>
<clipPath id="clip1_10_95140">
<rect width="14" height="14" fill="white" transform="translate(1 1)"/>
</clipPath>
</defs>
</svg>
