<svg width="16" height="16" viewBox="0 0 16 16" fill="none" xmlns="http://www.w3.org/2000/svg">
<g clip-path="url(#clip0_13307_17640)">
<path d="M7.99962 4.75316C7.57335 4.75316 7.15125 4.83712 6.75743 5.00025C6.36361 5.16338 6.00577 5.40248 5.70435 5.7039C5.40293 6.00531 5.16384 6.36315 5.00071 6.75697C4.83758 7.1508 4.75362 7.57289 4.75362 7.99916C4.75362 8.42544 4.83758 8.84753 5.00071 9.24135C5.16384 9.63518 5.40293 9.99302 5.70435 10.2944C6.00577 10.5959 6.36361 10.835 6.75743 10.9981C7.15125 11.1612 7.57335 11.2452 7.99962 11.2452C8.86051 11.2452 9.68615 10.9032 10.2949 10.2944C10.9036 9.68569 11.2456 8.86006 11.2456 7.99916C11.2456 7.13827 10.9036 6.31264 10.2949 5.7039C9.68615 5.09515 8.86051 4.75316 7.99962 4.75316ZM5.75362 7.99916C5.75362 7.40349 5.99025 6.83221 6.41146 6.411C6.83267 5.9898 7.40395 5.75316 7.99962 5.75316C8.5953 5.75316 9.16658 5.9898 9.58778 6.411C10.009 6.83221 10.2456 7.40349 10.2456 7.99916C10.2456 8.59484 10.009 9.16612 9.58778 9.58733C9.16658 10.0085 8.5953 10.2452 7.99962 10.2452C7.40395 10.2452 6.83267 10.0085 6.41146 9.58733C5.99025 9.16612 5.75362 8.59484 5.75362 7.99916Z" fill="#212529"/>
<path d="M9.79562 1.34216C9.26862 -0.447836 6.73062 -0.447836 6.20362 1.34216L6.10962 1.66116C6.07282 1.78612 6.00852 1.90125 5.92144 1.99812C5.83436 2.095 5.7267 2.17115 5.60636 2.22102C5.48602 2.27088 5.35605 2.29318 5.22598 2.28628C5.0959 2.27939 4.96901 2.24347 4.85462 2.18116L4.56262 2.02116C2.92262 1.12916 1.12962 2.92316 2.02262 4.56216L2.18162 4.85416C2.24393 4.96856 2.27984 5.09544 2.28674 5.22552C2.29364 5.3556 2.27134 5.48557 2.22147 5.60591C2.17161 5.72624 2.09545 5.8339 1.99858 5.92098C1.90171 6.00806 1.78657 6.07236 1.66162 6.10916L1.34262 6.20316C-0.447378 6.73016 -0.447378 9.26816 1.34262 9.79516L1.66162 9.88916C1.78657 9.92597 1.90171 9.99027 1.99858 10.0773C2.09545 10.1644 2.17161 10.2721 2.22147 10.3924C2.27134 10.5128 2.29364 10.6427 2.28674 10.7728C2.27984 10.9029 2.24393 11.0298 2.18162 11.1442L2.02162 11.4362C1.12962 13.0762 2.92262 14.8702 4.56262 13.9762L4.85462 13.8172C4.96901 13.7549 5.0959 13.7189 5.22598 13.712C5.35605 13.7052 5.48602 13.7275 5.60636 13.7773C5.7267 13.8272 5.83436 13.9033 5.92144 14.0002C6.00852 14.0971 6.07282 14.2122 6.10962 14.3372L6.20362 14.6562C6.73062 16.4462 9.26862 16.4462 9.79562 14.6562L9.88962 14.3372C9.92643 14.2122 9.99072 14.0971 10.0778 14.0002C10.1649 13.9033 10.2725 13.8272 10.3929 13.7773C10.5132 13.7275 10.6432 13.7052 10.7733 13.712C10.9033 13.7189 11.0302 13.7549 11.1446 13.8172L11.4366 13.9772C13.0766 14.8702 14.8706 13.0752 13.9766 11.4362L13.8176 11.1442C13.7553 11.0298 13.7194 10.9029 13.7125 10.7728C13.7056 10.6427 13.7279 10.5128 13.7778 10.3924C13.8276 10.2721 13.9038 10.1644 14.0007 10.0773C14.0975 9.99027 14.2127 9.92597 14.3376 9.88916L14.6566 9.79516C16.4466 9.26816 16.4466 6.73016 14.6566 6.20316L14.3376 6.10916C14.2127 6.07236 14.0975 6.00806 14.0007 5.92098C13.9038 5.8339 13.8276 5.72624 13.7778 5.60591C13.7279 5.48557 13.7056 5.3556 13.7125 5.22552C13.7194 5.09544 13.7553 4.96856 13.8176 4.85416L13.9776 4.56216C14.8706 2.92216 13.0756 1.12916 11.4366 2.02216L11.1446 2.18116C11.0302 2.24347 10.9033 2.27939 10.7733 2.28628C10.6432 2.29318 10.5132 2.27088 10.3929 2.22102C10.2725 2.17115 10.1649 2.095 10.0778 1.99812C9.99072 1.90125 9.92643 1.78612 9.88962 1.66116L9.79562 1.34216ZM7.16262 1.62516C7.40862 0.790164 8.59062 0.790164 8.83662 1.62516L8.93062 1.94416C9.00964 2.21225 9.14766 2.45925 9.33455 2.66706C9.52144 2.87488 9.75247 3.03823 10.0107 3.14514C10.2689 3.25206 10.5478 3.29983 10.8269 3.28495C11.106 3.27008 11.3782 3.19293 11.6236 3.05916L11.9146 2.89916C12.6786 2.48416 13.5146 3.31916 13.0986 4.08416L12.9396 4.37616C12.8061 4.62159 12.7291 4.89379 12.7144 5.17282C12.6997 5.45185 12.7476 5.73063 12.8546 5.98875C12.9616 6.24686 13.125 6.47777 13.3328 6.66454C13.5406 6.85131 13.7876 6.98922 14.0556 7.06816L14.3736 7.16216C15.2086 7.40816 15.2086 8.59016 14.3736 8.83616L14.0546 8.93016C13.7865 9.00918 13.5395 9.1472 13.3317 9.33409C13.1239 9.52098 12.9606 9.75201 12.8536 10.0102C12.7467 10.2685 12.699 10.5474 12.7138 10.8264C12.7287 11.1055 12.8059 11.3778 12.9396 11.6232L13.0996 11.9142C13.5146 12.6782 12.6796 13.5142 11.9146 13.0982L11.6236 12.9392C11.3782 12.8054 11.1059 12.7283 10.8267 12.7135C10.5476 12.6987 10.2686 12.7465 10.0104 12.8535C9.75216 12.9606 9.52115 13.124 9.3343 13.332C9.14746 13.5399 9.00953 13.787 8.93062 14.0552L8.83662 14.3732C8.59062 15.2082 7.40862 15.2082 7.16262 14.3732L7.06862 14.0542C6.98957 13.7862 6.85157 13.5394 6.66475 13.3316C6.47793 13.1239 6.24701 12.9607 5.98891 12.8537C5.73081 12.7468 5.45206 12.699 5.17309 12.7138C4.89412 12.7286 4.62198 12.8056 4.37662 12.9392L4.08462 13.0992C3.32062 13.5142 2.48462 12.6792 2.90062 11.9142L3.05962 11.6232C3.19357 11.3777 3.27087 11.1054 3.28585 10.8262C3.30082 10.547 3.2531 10.268 3.14617 10.0096C3.03924 9.75125 2.87582 9.52011 2.6679 9.33315C2.45998 9.14619 2.21285 9.00815 1.94462 8.92916L1.62562 8.83517C0.790622 8.58916 0.790622 7.40716 1.62562 7.16116L1.94462 7.06716C2.21243 6.98807 2.45916 6.8501 2.66676 6.66335C2.87437 6.4766 3.03759 6.24579 3.14448 5.98782C3.25136 5.72985 3.29922 5.45124 3.28454 5.17238C3.26986 4.89353 3.19301 4.62149 3.05962 4.37616L2.89962 4.08416C2.48462 3.32016 3.31962 2.48416 4.08462 2.90016L4.37662 3.05916C4.62198 3.19274 4.89412 3.26974 5.17309 3.28452C5.45206 3.2993 5.73081 3.25148 5.98891 3.14458C6.24701 3.03768 6.47793 2.87439 6.66475 2.66669C6.85157 2.45898 6.98957 2.21211 7.06862 1.94416L7.16262 1.62516Z" fill="#212529"/>
</g>
<defs>
<clipPath id="clip0_13307_17640">
<rect width="16" height="16" fill="white"/>
</clipPath>
</defs>
</svg>
