<svg width="0" height="0" class="hidden">
  <symbol fill="none" xmlns="http://www.w3.org/2000/svg" viewBox="0 0 22 24" id="notification bell">
    <path d="M21.5781 17.0156C20.6875 16.0312 18.9531 14.5781 18.9531 9.75C18.9531 6.14062 16.4219 3.23438 12.9531 2.48438V1.5C12.9531 0.703125 12.2969 0 11.5 0C10.6562 0 10 0.703125 10 1.5V2.48438C6.53125 3.23438 4 6.14062 4 9.75C4 14.5781 2.26562 16.0312 1.375 17.0156C1.09375 17.2969 0.953125 17.6719 1 18C1 18.7969 1.5625 19.5 2.5 19.5H20.4531C21.3906 19.5 21.9531 18.7969 22 18C22 17.6719 21.8594 17.2969 21.5781 17.0156ZM4.14062 17.25C5.125 15.9844 6.20312 13.7812 6.25 9.79688C6.25 9.79688 6.25 9.79688 6.25 9.75C6.25 6.89062 8.59375 4.5 11.5 4.5C14.3594 4.5 16.75 6.89062 16.75 9.75C16.75 9.79688 16.7031 9.79688 16.7031 9.79688C16.75 13.7812 17.8281 15.9844 18.8125 17.25H4.14062ZM11.5 24C13.1406 24 14.4531 22.6875 14.4531 21H8.5C8.5 22.6875 9.8125 24 11.5 24Z" fill="#DEDEDE"></path>
  </symbol>


  <symbol fill="none" xmlns="http://www.w3.org/2000/svg" viewBox="0 0 24 24" id="share-square">
    <path d="M12 0.375C5.57812 0.375 0.375 5.625 0.375 12C0.375 18.4219 5.57812 23.625 12 23.625C18.375 23.625 23.625 18.4219 23.625 12C23.625 5.625 18.375 0.375 12 0.375ZM12 21.375C6.79687 21.375 2.625 17.2031 2.625 12C2.625 6.84375 6.79687 2.625 12 2.625C17.1562 2.625 21.375 6.84375 21.375 12C21.375 17.2031 17.1562 21.375 12 21.375ZM17.0156 9.42188C17.0156 7.07813 14.5312 5.25 12.2344 5.25C10.0312 5.25 8.625 6.1875 7.54687 7.82813C7.35937 8.0625 7.40625 8.39063 7.64062 8.57813L8.95312 9.5625C9.1875 9.75 9.5625 9.70313 9.75 9.46875C10.4531 8.57813 10.9687 8.0625 12.0469 8.0625C12.8906 8.0625 13.9219 8.57813 13.9219 9.42188C13.9219 10.0313 13.4062 10.3125 12.5625 10.7813C11.625 11.3438 10.3594 12 10.3594 13.6875V14.0625C10.3594 14.3906 10.5937 14.625 10.9219 14.625H13.0312C13.3594 14.625 13.5937 14.3906 13.5937 14.0625V13.7813C13.5937 12.6094 17.0156 12.5625 17.0156 9.42188ZM13.9687 17.25C13.9687 16.1719 13.0781 15.2812 12 15.2812C10.875 15.2812 10.0312 16.1719 10.0312 17.25C10.0312 18.375 10.875 19.2188 12 19.2188C13.0781 19.2188 13.9687 18.375 13.9687 17.25Z" fill="#DEDEDE"></path>
  </symbol>


    <symbol fill="none" xmlns="http://www.w3.org/2000/svg" viewBox="0 0 32 32" id="avatar">
    <g clip-path="url(#clip0_13307_1834)">
      <circle cx="16" cy="16" r="15.2" fill="#DEDEDE" stroke="#F9F9F9" stroke-width="1.6"></circle>
      <circle cx="16" cy="11.2" r="6.4" fill="#BDBDBD"></circle>
      <path fill-rule="evenodd" clip-rule="evenodd" d="M6.41846 26.7498C6.7283 22.9831 10.8997 20 16 20C21.1003 20 25.2717 22.9831 25.5815 26.7498C23.0361 29.0202 19.6792 30.4 16 30.4C12.3208 30.4 8.96387 29.0202 6.41846 26.7498Z" fill="#BDBDBD"></path>
    </g>
    <defs>
      <clipPath id="clip0_13307_1834">
        <rect width="32" height="32" fill="white"></rect>
      </clipPath>
    </defs>
  </symbol>

    <symbol fill="none" xmlns="http://www.w3.org/2000/svg" viewBox="0 0 16 16" id="key">
    <g clip-path="url(#clip0_13307_17640)">
      <path d="M7.99962 4.75316C7.57335 4.75316 7.15125 4.83712 6.75743 5.00025C6.36361 5.16338 6.00577 5.40248 5.70435 5.7039C5.40293 6.00531 5.16384 6.36315 5.00071 6.75697C4.83758 7.1508 4.75362 7.57289 4.75362 7.99916C4.75362 8.42544 4.83758 8.84753 5.00071 9.24135C5.16384 9.63518 5.40293 9.99302 5.70435 10.2944C6.00577 10.5959 6.36361 10.835 6.75743 10.9981C7.15125 11.1612 7.57335 11.2452 7.99962 11.2452C8.86051 11.2452 9.68615 10.9032 10.2949 10.2944C10.9036 9.68569 11.2456 8.86006 11.2456 7.99916C11.2456 7.13827 10.9036 6.31264 10.2949 5.7039C9.68615 5.09515 8.86051 4.75316 7.99962 4.75316ZM5.75362 7.99916C5.75362 7.40349 5.99025 6.83221 6.41146 6.411C6.83267 5.9898 7.40395 5.75316 7.99962 5.75316C8.5953 5.75316 9.16658 5.9898 9.58778 6.411C10.009 6.83221 10.2456 7.40349 10.2456 7.99916C10.2456 8.59484 10.009 9.16612 9.58778 9.58733C9.16658 10.0085 8.5953 10.2452 7.99962 10.2452C7.40395 10.2452 6.83267 10.0085 6.41146 9.58733C5.99025 9.16612 5.75362 8.59484 5.75362 7.99916Z" fill="#212529"></path>
      <path d="M9.79562 1.34216C9.26862 -0.447836 6.73062 -0.447836 6.20362 1.34216L6.10962 1.66116C6.07282 1.78612 6.00852 1.90125 5.92144 1.99812C5.83436 2.095 5.7267 2.17115 5.60636 2.22102C5.48602 2.27088 5.35605 2.29318 5.22598 2.28628C5.0959 2.27939 4.96901 2.24347 4.85462 2.18116L4.56262 2.02116C2.92262 1.12916 1.12962 2.92316 2.02262 4.56216L2.18162 4.85416C2.24393 4.96856 2.27984 5.09544 2.28674 5.22552C2.29364 5.3556 2.27134 5.48557 2.22147 5.60591C2.17161 5.72624 2.09545 5.8339 1.99858 5.92098C1.90171 6.00806 1.78657 6.07236 1.66162 6.10916L1.34262 6.20316C-0.447378 6.73016 -0.447378 9.26816 1.34262 9.79516L1.66162 9.88916C1.78657 9.92597 1.90171 9.99027 1.99858 10.0773C2.09545 10.1644 2.17161 10.2721 2.22147 10.3924C2.27134 10.5128 2.29364 10.6427 2.28674 10.7728C2.27984 10.9029 2.24393 11.0298 2.18162 11.1442L2.02162 11.4362C1.12962 13.0762 2.92262 14.8702 4.56262 13.9762L4.85462 13.8172C4.96901 13.7549 5.0959 13.7189 5.22598 13.712C5.35605 13.7052 5.48602 13.7275 5.60636 13.7773C5.7267 13.8272 5.83436 13.9033 5.92144 14.0002C6.00852 14.0971 6.07282 14.2122 6.10962 14.3372L6.20362 14.6562C6.73062 16.4462 9.26862 16.4462 9.79562 14.6562L9.88962 14.3372C9.92643 14.2122 9.99072 14.0971 10.0778 14.0002C10.1649 13.9033 10.2725 13.8272 10.3929 13.7773C10.5132 13.7275 10.6432 13.7052 10.7733 13.712C10.9033 13.7189 11.0302 13.7549 11.1446 13.8172L11.4366 13.9772C13.0766 14.8702 14.8706 13.0752 13.9766 11.4362L13.8176 11.1442C13.7553 11.0298 13.7194 10.9029 13.7125 10.7728C13.7056 10.6427 13.7279 10.5128 13.7778 10.3924C13.8276 10.2721 13.9038 10.1644 14.0007 10.0773C14.0975 9.99027 14.2127 9.92597 14.3376 9.88916L14.6566 9.79516C16.4466 9.26816 16.4466 6.73016 14.6566 6.20316L14.3376 6.10916C14.2127 6.07236 14.0975 6.00806 14.0007 5.92098C13.9038 5.8339 13.8276 5.72624 13.7778 5.60591C13.7279 5.48557 13.7056 5.3556 13.7125 5.22552C13.7194 5.09544 13.7553 4.96856 13.8176 4.85416L13.9776 4.56216C14.8706 2.92216 13.0756 1.12916 11.4366 2.02216L11.1446 2.18116C11.0302 2.24347 10.9033 2.27939 10.7733 2.28628C10.6432 2.29318 10.5132 2.27088 10.3929 2.22102C10.2725 2.17115 10.1649 2.095 10.0778 1.99812C9.99072 1.90125 9.92643 1.78612 9.88962 1.66116L9.79562 1.34216ZM7.16262 1.62516C7.40862 0.790164 8.59062 0.790164 8.83662 1.62516L8.93062 1.94416C9.00964 2.21225 9.14766 2.45925 9.33455 2.66706C9.52144 2.87488 9.75247 3.03823 10.0107 3.14514C10.2689 3.25206 10.5478 3.29983 10.8269 3.28495C11.106 3.27008 11.3782 3.19293 11.6236 3.05916L11.9146 2.89916C12.6786 2.48416 13.5146 3.31916 13.0986 4.08416L12.9396 4.37616C12.8061 4.62159 12.7291 4.89379 12.7144 5.17282C12.6997 5.45185 12.7476 5.73063 12.8546 5.98875C12.9616 6.24686 13.125 6.47777 13.3328 6.66454C13.5406 6.85131 13.7876 6.98922 14.0556 7.06816L14.3736 7.16216C15.2086 7.40816 15.2086 8.59016 14.3736 8.83616L14.0546 8.93016C13.7865 9.00918 13.5395 9.1472 13.3317 9.33409C13.1239 9.52098 12.9606 9.75201 12.8536 10.0102C12.7467 10.2685 12.699 10.5474 12.7138 10.8264C12.7287 11.1055 12.8059 11.3778 12.9396 11.6232L13.0996 11.9142C13.5146 12.6782 12.6796 13.5142 11.9146 13.0982L11.6236 12.9392C11.3782 12.8054 11.1059 12.7283 10.8267 12.7135C10.5476 12.6987 10.2686 12.7465 10.0104 12.8535C9.75216 12.9606 9.52115 13.124 9.3343 13.332C9.14746 13.5399 9.00953 13.787 8.93062 14.0552L8.83662 14.3732C8.59062 15.2082 7.40862 15.2082 7.16262 14.3732L7.06862 14.0542C6.98957 13.7862 6.85157 13.5394 6.66475 13.3316C6.47793 13.1239 6.24701 12.9607 5.98891 12.8537C5.73081 12.7468 5.45206 12.699 5.17309 12.7138C4.89412 12.7286 4.62198 12.8056 4.37662 12.9392L4.08462 13.0992C3.32062 13.5142 2.48462 12.6792 2.90062 11.9142L3.05962 11.6232C3.19357 11.3777 3.27087 11.1054 3.28585 10.8262C3.30082 10.547 3.2531 10.268 3.14617 10.0096C3.03924 9.75125 2.87582 9.52011 2.6679 9.33315C2.45998 9.14619 2.21285 9.00815 1.94462 8.92916L1.62562 8.83517C0.790622 8.58916 0.790622 7.40716 1.62562 7.16116L1.94462 7.06716C2.21243 6.98807 2.45916 6.8501 2.66676 6.66335C2.87437 6.4766 3.03759 6.24579 3.14448 5.98782C3.25136 5.72985 3.29922 5.45124 3.28454 5.17238C3.26986 4.89353 3.19301 4.62149 3.05962 4.37616L2.89962 4.08416C2.48462 3.32016 3.31962 2.48416 4.08462 2.90016L4.37662 3.05916C4.62198 3.19274 4.89412 3.26974 5.17309 3.28452C5.45206 3.2993 5.73081 3.25148 5.98891 3.14458C6.24701 3.03768 6.47793 2.87439 6.66475 2.66669C6.85157 2.45898 6.98957 2.21211 7.06862 1.94416L7.16262 1.62516Z" fill="#212529"></path>
    </g>
    <defs>
      <clipPath id="clip0_13307_17640">
        <rect width="16" height="16" fill="white"></rect>
      </clipPath>
    </defs>
  </symbol>

    <symbol fill="none" xmlns="http://www.w3.org/2000/svg" viewBox="0 0 16 16" id="calendar">
    <rect width="16" height="16" fill="white" fill-opacity="0.01"></rect>
    <g clip-path="url(#clip0_10_95140)">
      <rect width="14" height="14" transform="translate(1 1)" fill="white" fill-opacity="0.01"></rect>
      <g clip-path="url(#clip1_10_95140)">
        <path d="M10.4969 7.25196C10.5376 7.2926 10.57 7.34088 10.592 7.39403C10.6141 7.44718 10.6254 7.50416 10.6254 7.56171C10.6254 7.61925 10.6141 7.67623 10.592 7.72939C10.57 7.78254 10.5376 7.83082 10.4969 7.87146L7.87188 10.4965C7.83124 10.5372 7.78297 10.5695 7.72981 10.5916C7.67666 10.6136 7.61968 10.625 7.56213 10.625C7.50459 10.625 7.44761 10.6136 7.39445 10.5916C7.3413 10.5695 7.29302 10.5372 7.25238 10.4965L5.93988 9.18396C5.89921 9.14328 5.86694 9.09499 5.84493 9.04184C5.82291 8.9887 5.81158 8.93173 5.81158 8.87421C5.81158 8.81668 5.82291 8.75972 5.84493 8.70657C5.86694 8.65342 5.89921 8.60513 5.93988 8.56446C6.02203 8.48231 6.13345 8.43615 6.24963 8.43615C6.30716 8.43615 6.36412 8.44748 6.41727 8.4695C6.47042 8.49151 6.51871 8.52378 6.55938 8.56446L7.56213 9.56808L9.87738 7.25196C9.91802 7.21121 9.9663 7.17889 10.0195 7.15683C10.0726 7.13478 10.1296 7.12342 10.1871 7.12342C10.2447 7.12342 10.3017 7.13478 10.3548 7.15683C10.408 7.17889 10.4562 7.21121 10.4969 7.25196Z" fill="#6C757D"></path>
        <path d="M4.06213 0.999207C4.17817 0.999207 4.28945 1.0453 4.37149 1.12735C4.45354 1.20939 4.49963 1.32067 4.49963 1.43671V1.87421H11.4996V1.43671C11.4996 1.32067 11.5457 1.20939 11.6278 1.12735C11.7098 1.0453 11.8211 0.999207 11.9371 0.999207C12.0532 0.999207 12.1644 1.0453 12.2465 1.12735C12.3285 1.20939 12.3746 1.32067 12.3746 1.43671V1.87421H13.2496C13.7138 1.87421 14.1589 2.05858 14.4871 2.38677C14.8153 2.71496 14.9996 3.16008 14.9996 3.62421V13.2492C14.9996 13.7133 14.8153 14.1585 14.4871 14.4866C14.1589 14.8148 13.7138 14.9992 13.2496 14.9992H2.74963C2.2855 14.9992 1.84039 14.8148 1.5122 14.4866C1.18401 14.1585 0.999634 13.7133 0.999634 13.2492V3.62421C0.999634 3.16008 1.18401 2.71496 1.5122 2.38677C1.84039 2.05858 2.2855 1.87421 2.74963 1.87421H3.62463V1.43671C3.62463 1.32067 3.67073 1.20939 3.75277 1.12735C3.83482 1.0453 3.9461 0.999207 4.06213 0.999207ZM1.87463 4.49921V13.2492C1.87463 13.4813 1.96682 13.7038 2.13092 13.8679C2.29501 14.032 2.51757 14.1242 2.74963 14.1242H13.2496C13.4817 14.1242 13.7043 14.032 13.8684 13.8679C14.0324 13.7038 14.1246 13.4813 14.1246 13.2492V4.49921H1.87463Z" fill="#6C757D"></path>
      </g>
    </g>
    <defs>
      <clipPath id="clip0_10_95140">
        <rect width="14" height="14" fill="white" transform="translate(1 1)"></rect>
      </clipPath>
      <clipPath id="clip1_10_95140">
        <rect width="14" height="14" fill="white" transform="translate(1 1)"></rect>
      </clipPath>
    </defs>
  </symbol>

    <symbol fill="none" xmlns="http://www.w3.org/2000/svg" viewBox="0 0 22 14" id="fa-user-circle">
    <path d="M10.2031 12.9062C10.625 13.3281 11.3281 13.3281 11.75 12.9062L20.8906 3.8125C21.3125 3.34375 21.3125 2.64062 20.8906 2.21875L19.8125 1.14062C19.3906 0.71875 18.6875 0.71875 18.2188 1.14062L11 8.35938L3.73438 1.14062C3.26562 0.71875 2.5625 0.71875 2.14062 1.14062L1.0625 2.21875C0.640625 2.64062 0.640625 3.34375 1.0625 3.8125L10.2031 12.9062Z" fill="#DEDEDE"></path>
  </symbol>

    <symbol fill="none" xmlns="http://www.w3.org/2000/svg" viewBox="0 0 14 14" id="info">
    <g clip-path="url(#clip0_13365_15403)">
      <rect width="14" height="14" fill="white" fill-opacity="0.01"></rect>
      <g clip-path="url(#clip1_13365_15403)">
        <path d="M6.99963 13.1242C5.37518 13.1242 3.81727 12.4789 2.6686 11.3302C1.51994 10.1816 0.874634 8.62366 0.874634 6.99921C0.874634 5.37476 1.51994 3.81684 2.6686 2.66818C3.81727 1.51952 5.37518 0.874207 6.99963 0.874207C8.62409 0.874207 10.182 1.51952 11.3307 2.66818C12.4793 3.81684 13.1246 5.37476 13.1246 6.99921C13.1246 8.62366 12.4793 10.1816 11.3307 11.3302C10.182 12.4789 8.62409 13.1242 6.99963 13.1242ZM6.99963 13.9992C8.85615 13.9992 10.6366 13.2617 11.9494 11.949C13.2621 10.6362 13.9996 8.85572 13.9996 6.99921C13.9996 5.14269 13.2621 3.36221 11.9494 2.04946C10.6366 0.736705 8.85615 -0.000793457 6.99963 -0.000793457C5.14312 -0.000793457 3.36264 0.736705 2.04989 2.04946C0.737132 3.36221 -0.000366211 5.14269 -0.000366211 6.99921C-0.000366211 8.85572 0.737132 10.6362 2.04989 11.949C3.36264 13.2617 5.14312 13.9992 6.99963 13.9992Z" fill="#6C757D"></path>
        <path d="M7.81338 5.76371L5.80963 6.01483L5.73788 6.34733L6.13163 6.41996C6.38888 6.48121 6.43963 6.57396 6.38363 6.83033L5.73788 9.86483C5.56813 10.6497 5.82976 11.019 6.44488 11.019C6.92176 11.019 7.47563 10.7985 7.72676 10.4957L7.80376 10.1317C7.62876 10.2857 7.37326 10.347 7.20351 10.347C6.96288 10.347 6.87538 10.1781 6.93751 9.88058L7.81338 5.76371ZM7.87463 3.93671C7.87463 4.16877 7.78245 4.39133 7.61835 4.55542C7.45426 4.71952 7.2317 4.81171 6.99963 4.81171C6.76757 4.81171 6.54501 4.71952 6.38092 4.55542C6.21682 4.39133 6.12463 4.16877 6.12463 3.93671C6.12463 3.70464 6.21682 3.48208 6.38092 3.31799C6.54501 3.15389 6.76757 3.06171 6.99963 3.06171C7.2317 3.06171 7.45426 3.15389 7.61835 3.31799C7.78245 3.48208 7.87463 3.70464 7.87463 3.93671Z" fill="#6C757D"></path>
      </g>
    </g>
    <defs>
      <clipPath id="clip0_13365_15403">
        <rect width="14" height="14" fill="white"></rect>
      </clipPath>
      <clipPath id="clip1_13365_15403">
        <rect width="14" height="14" fill="white"></rect>
      </clipPath>
    </defs>
  </symbol>
</svg>